STARTFONT 2.1
FONT -thai-dbthaitext-medium-r-normal--19-140-100-100-p-58-tis620-0
SIZE 14 100 100
FONTBOUNDINGBOX 25 22 -6 -8
STARTPROPERTIES 25
FOUNDRY "thai"
FAMILY_NAME "dbthaitext"
WEIGHT_NAME "medium"
SLANT "r"
SETWIDTH_NAME "normal"
ADD_STYLE_NAME ""
PIXEL_SIZE 19
POINT_SIZE 140
RESOLUTION_X 100
RESOLUTION_Y 100
SPACING "p"
AVERAGE_WIDTH 58
CHARSET_REGISTRY "tis620"
CHARSET_ENCODING "0"
FONT "-thai-dbthaitext-medium-r-normal--19-140-100-100-p-58-tis620-0"
COPYRIGHT "Typeface (c) The Monotype Corporation plc. Data (c) The Monotype Corporation plc/Type Solutions Inc. 1990-1992. All Rights Reserved"
RAW_PIXELSIZE 1000
RAW_POINTSIZE 723
RAW_ASCENT 736
RAW_DESCENT 415
RAW_AVERAGE_WIDTH 2994
FACE_NAME "DBThaiTexthickne5"
DEFAULT_CHAR 0
FONT_ASCENT 14
FONT_DESCENT 8
ENDPROPERTIES
CHARS 190
STARTCHAR space
ENCODING 32
SWIDTH 257 0
DWIDTH 5 0
BBX 0 0 0 0
BITMAP
ENDCHAR
STARTCHAR exclam
ENCODING 33
SWIDTH 154 0
DWIDTH 3 0
BBX 1 8 1 0
BITMAP
80
80
80
80
80
80
00
80
ENDCHAR
STARTCHAR quotedbl
ENCODING 34
SWIDTH 205 0
DWIDTH 4 0
BBX 3 3 1 5
BITMAP
a0
a0
a0
ENDCHAR
STARTCHAR numbersign
ENCODING 35
SWIDTH 308 0
DWIDTH 6 0
BBX 6 8 0 0
BITMAP
28
28
fc
48
48
fc
50
50
ENDCHAR
STARTCHAR dollar
ENCODING 36
SWIDTH 308 0
DWIDTH 6 0
BBX 6 10 0 -1
BITMAP
10
78
54
50
70
1c
14
94
78
10
ENDCHAR
STARTCHAR percent
ENCODING 37
SWIDTH 514 0
DWIDTH 10 0
BBX 10 8 0 0
BITMAP
6200
9200
9400
6400
0980
0a40
1240
2180
ENDCHAR
STARTCHAR ampersand
ENCODING 38
SWIDTH 411 0
DWIDTH 8 0
BBX 6 8 1 0
BITMAP
78
48
58
30
d4
88
88
7c
ENDCHAR
STARTCHAR apostrophe
ENCODING 39
SWIDTH 102 0
DWIDTH 2 0
BBX 1 3 1 5
BITMAP
80
80
80
ENDCHAR
STARTCHAR parenleft
ENCODING 40
SWIDTH 205 0
DWIDTH 4 0
BBX 2 10 1 -2
BITMAP
40
40
80
80
80
80
80
80
40
40
ENDCHAR
STARTCHAR parenright
ENCODING 41
SWIDTH 205 0
DWIDTH 4 0
BBX 3 10 0 -2
BITMAP
40
40
20
20
20
20
20
20
40
40
ENDCHAR
STARTCHAR asterisk
ENCODING 42
SWIDTH 257 0
DWIDTH 5 0
BBX 4 3 0 5
BITMAP
70
20
50
ENDCHAR
STARTCHAR plus
ENCODING 43
SWIDTH 360 0
DWIDTH 7 0
BBX 5 6 1 0
BITMAP
20
20
20
f8
20
20
ENDCHAR
STARTCHAR comma
ENCODING 44
SWIDTH 154 0
DWIDTH 3 0
BBX 2 3 1 -1
BITMAP
40
c0
40
ENDCHAR
STARTCHAR minus
ENCODING 45
SWIDTH 205 0
DWIDTH 4 0
BBX 3 1 0 3
BITMAP
e0
ENDCHAR
STARTCHAR period
ENCODING 46
SWIDTH 154 0
DWIDTH 3 0
BBX 1 2 1 0
BITMAP
80
80
ENDCHAR
STARTCHAR slash
ENCODING 47
SWIDTH 154 0
DWIDTH 3 0
BBX 3 8 0 0
BITMAP
20
20
20
40
40
40
80
80
ENDCHAR
STARTCHAR 0
ENCODING 48
SWIDTH 308 0
DWIDTH 6 0
BBX 5 7 0 0
BITMAP
70
d8
88
88
88
d8
70
ENDCHAR
STARTCHAR 1
ENCODING 49
SWIDTH 308 0
DWIDTH 6 0
BBX 3 7 1 0
BITMAP
20
e0
20
20
20
20
20
ENDCHAR
STARTCHAR 2
ENCODING 50
SWIDTH 308 0
DWIDTH 6 0
BBX 5 7 0 0
BITMAP
70
88
08
10
60
80
f8
ENDCHAR
STARTCHAR 3
ENCODING 51
SWIDTH 308 0
DWIDTH 6 0
BBX 5 7 0 0
BITMAP
70
48
08
30
08
88
70
ENDCHAR
STARTCHAR 4
ENCODING 52
SWIDTH 308 0
DWIDTH 6 0
BBX 5 7 0 0
BITMAP
10
30
50
50
f8
10
10
ENDCHAR
STARTCHAR 5
ENCODING 53
SWIDTH 308 0
DWIDTH 6 0
BBX 5 7 0 0
BITMAP
78
40
f0
98
08
88
70
ENDCHAR
STARTCHAR 6
ENCODING 54
SWIDTH 308 0
DWIDTH 6 0
BBX 5 7 0 0
BITMAP
70
c8
80
f8
88
88
70
ENDCHAR
STARTCHAR 7
ENCODING 55
SWIDTH 308 0
DWIDTH 6 0
BBX 5 7 0 0
BITMAP
f8
18
10
20
20
40
40
ENDCHAR
STARTCHAR 8
ENCODING 56
SWIDTH 308 0
DWIDTH 6 0
BBX 5 7 0 0
BITMAP
70
c8
d8
70
88
88
70
ENDCHAR
STARTCHAR 9
ENCODING 57
SWIDTH 308 0
DWIDTH 6 0
BBX 5 7 0 0
BITMAP
70
98
88
d8
28
98
70
ENDCHAR
STARTCHAR colon
ENCODING 58
SWIDTH 154 0
DWIDTH 3 0
BBX 1 6 1 0
BITMAP
80
00
00
00
80
80
ENDCHAR
STARTCHAR semicolon
ENCODING 59
SWIDTH 154 0
DWIDTH 3 0
BBX 2 7 1 -1
BITMAP
c0
00
00
00
40
c0
40
ENDCHAR
STARTCHAR less
ENCODING 60
SWIDTH 360 0
DWIDTH 7 0
BBX 6 6 0 0
BITMAP
04
1c
60
c0
30
0c
ENDCHAR
STARTCHAR equal
ENCODING 61
SWIDTH 360 0
DWIDTH 7 0
BBX 6 3 0 1
BITMAP
fc
00
fc
ENDCHAR
STARTCHAR greater
ENCODING 62
SWIDTH 360 0
DWIDTH 7 0
BBX 6 6 0 0
BITMAP
80
e0
18
0c
70
80
ENDCHAR
STARTCHAR question
ENCODING 63
SWIDTH 308 0
DWIDTH 6 0
BBX 5 8 1 0
BITMAP
78
88
08
10
20
20
00
20
ENDCHAR
STARTCHAR at
ENCODING 64
SWIDTH 617 0
DWIDTH 12 0
BBX 11 10 0 -2
BITMAP
1f80
6040
4ea0
c920
9120
9120
dfc0
6000
3080
1f00
ENDCHAR
STARTCHAR A
ENCODING 65
SWIDTH 411 0
DWIDTH 8 0
BBX 7 8 0 0
BITMAP
10
28
28
28
44
7c
c4
82
ENDCHAR
STARTCHAR B
ENCODING 66
SWIDTH 411 0
DWIDTH 8 0
BBX 6 8 1 0
BITMAP
f8
84
84
f8
84
84
84
f8
ENDCHAR
STARTCHAR C
ENCODING 67
SWIDTH 411 0
DWIDTH 8 0
BBX 7 8 1 0
BITMAP
7c
84
80
80
80
82
44
38
ENDCHAR
STARTCHAR D
ENCODING 68
SWIDTH 411 0
DWIDTH 8 0
BBX 7 8 1 0
BITMAP
f8
84
82
82
82
86
84
f8
ENDCHAR
STARTCHAR E
ENCODING 69
SWIDTH 411 0
DWIDTH 8 0
BBX 6 8 1 0
BITMAP
fc
80
80
fc
80
80
80
fc
ENDCHAR
STARTCHAR F
ENCODING 70
SWIDTH 360 0
DWIDTH 7 0
BBX 6 8 1 0
BITMAP
fc
80
80
f8
80
80
80
80
ENDCHAR
STARTCHAR G
ENCODING 71
SWIDTH 462 0
DWIDTH 9 0
BBX 7 8 1 0
BITMAP
3c
c6
80
9e
82
86
46
3a
ENDCHAR
STARTCHAR H
ENCODING 72
SWIDTH 411 0
DWIDTH 8 0
BBX 6 8 1 0
BITMAP
84
84
84
fc
84
84
84
84
ENDCHAR
STARTCHAR I
ENCODING 73
SWIDTH 154 0
DWIDTH 3 0
BBX 1 8 1 0
BITMAP
80
80
80
80
80
80
80
80
ENDCHAR
STARTCHAR J
ENCODING 74
SWIDTH 308 0
DWIDTH 6 0
BBX 5 8 0 0
BITMAP
08
08
08
08
08
88
88
f0
ENDCHAR
STARTCHAR K
ENCODING 75
SWIDTH 411 0
DWIDTH 8 0
BBX 7 8 1 0
BITMAP
84
88
b0
f0
d0
88
8c
84
ENDCHAR
STARTCHAR L
ENCODING 76
SWIDTH 308 0
DWIDTH 6 0
BBX 5 8 1 0
BITMAP
80
80
80
80
80
80
80
f8
ENDCHAR
STARTCHAR M
ENCODING 77
SWIDTH 514 0
DWIDTH 10 0
BBX 8 8 1 0
BITMAP
c3
c3
c5
a5
a5
a9
99
99
ENDCHAR
STARTCHAR N
ENCODING 78
SWIDTH 411 0
DWIDTH 8 0
BBX 6 8 1 0
BITMAP
84
c4
a4
a4
94
94
8c
84
ENDCHAR
STARTCHAR O
ENCODING 79
SWIDTH 462 0
DWIDTH 9 0
BBX 9 8 0 0
BITMAP
1c00
6300
c180
8080
8080
c180
6300
1c00
ENDCHAR
STARTCHAR P
ENCODING 80
SWIDTH 411 0
DWIDTH 8 0
BBX 6 8 1 0
BITMAP
f8
84
84
f8
80
80
80
80
ENDCHAR
STARTCHAR Q
ENCODING 81
SWIDTH 462 0
DWIDTH 9 0
BBX 9 8 0 0
BITMAP
1c00
6300
c180
8080
8080
c180
6700
1f00
ENDCHAR
STARTCHAR R
ENCODING 82
SWIDTH 411 0
DWIDTH 8 0
BBX 7 8 1 0
BITMAP
fc
84
84
f8
84
84
84
86
ENDCHAR
STARTCHAR S
ENCODING 83
SWIDTH 411 0
DWIDTH 8 0
BBX 6 8 1 0
BITMAP
78
84
80
70
0c
84
84
78
ENDCHAR
STARTCHAR T
ENCODING 84
SWIDTH 360 0
DWIDTH 7 0
BBX 7 8 0 0
BITMAP
fe
10
10
10
10
10
10
10
ENDCHAR
STARTCHAR U
ENCODING 85
SWIDTH 411 0
DWIDTH 8 0
BBX 6 8 1 0
BITMAP
84
84
84
84
84
84
84
78
ENDCHAR
STARTCHAR V
ENCODING 86
SWIDTH 411 0
DWIDTH 8 0
BBX 7 8 0 0
BITMAP
82
46
44
44
28
28
28
10
ENDCHAR
STARTCHAR W
ENCODING 87
SWIDTH 565 0
DWIDTH 11 0
BBX 11 8 0 0
BITMAP
c420
ce60
4a40
4a40
5b40
71c0
3180
3180
ENDCHAR
STARTCHAR X
ENCODING 88
SWIDTH 411 0
DWIDTH 8 0
BBX 7 8 0 0
BITMAP
44
64
28
10
38
28
44
c2
ENDCHAR
STARTCHAR Y
ENCODING 89
SWIDTH 411 0
DWIDTH 8 0
BBX 8 8 0 0
BITMAP
c2
46
2c
28
10
10
10
10
ENDCHAR
STARTCHAR Z
ENCODING 90
SWIDTH 360 0
DWIDTH 7 0
BBX 6 8 1 0
BITMAP
fc
08
18
10
20
40
c0
fc
ENDCHAR
STARTCHAR bracketleft
ENCODING 91
SWIDTH 154 0
DWIDTH 3 0
BBX 2 11 1 -3
BITMAP
c0
80
80
80
80
80
80
80
80
80
c0
ENDCHAR
STARTCHAR backslash
ENCODING 92
SWIDTH 154 0
DWIDTH 3 0
BBX 3 8 0 0
BITMAP
80
80
80
40
40
40
20
20
ENDCHAR
STARTCHAR bracketright
ENCODING 93
SWIDTH 154 0
DWIDTH 3 0
BBX 2 11 0 -3
BITMAP
c0
40
40
40
40
40
40
40
40
40
c0
ENDCHAR
STARTCHAR asciicircum
ENCODING 94
SWIDTH 257 0
DWIDTH 5 0
BBX 4 4 1 4
BITMAP
60
60
50
90
ENDCHAR
STARTCHAR underscore
ENCODING 95
SWIDTH 308 0
DWIDTH 6 0
BBX 7 1 0 -2
BITMAP
fe
ENDCHAR
STARTCHAR grave
ENCODING 96
SWIDTH 154 0
DWIDTH 3 0
BBX 3 3 0 2
BITMAP
40
e0
e0
ENDCHAR
STARTCHAR a
ENCODING 97
SWIDTH 308 0
DWIDTH 6 0
BBX 6 6 0 0
BITMAP
7c
44
1c
64
44
7c
ENDCHAR
STARTCHAR b
ENCODING 98
SWIDTH 308 0
DWIDTH 6 0
BBX 5 8 1 0
BITMAP
80
80
f0
88
88
88
88
70
ENDCHAR
STARTCHAR c
ENCODING 99
SWIDTH 308 0
DWIDTH 6 0
BBX 6 6 0 0
BITMAP
78
c8
80
80
c8
78
ENDCHAR
STARTCHAR d
ENCODING 100
SWIDTH 308 0
DWIDTH 6 0
BBX 6 8 0 0
BITMAP
04
04
34
4c
84
84
4c
7c
ENDCHAR
STARTCHAR e
ENCODING 101
SWIDTH 308 0
DWIDTH 6 0
BBX 5 6 1 0
BITMAP
70
88
f8
80
88
70
ENDCHAR
STARTCHAR f
ENCODING 102
SWIDTH 154 0
DWIDTH 3 0
BBX 3 8 0 0
BITMAP
40
40
e0
40
40
40
40
40
ENDCHAR
STARTCHAR g
ENCODING 103
SWIDTH 308 0
DWIDTH 6 0
BBX 6 9 0 -3
BITMAP
34
4c
84
84
4c
7c
04
4c
38
ENDCHAR
STARTCHAR h
ENCODING 104
SWIDTH 308 0
DWIDTH 6 0
BBX 5 8 1 0
BITMAP
80
80
f8
88
88
88
88
88
ENDCHAR
STARTCHAR i
ENCODING 105
SWIDTH 154 0
DWIDTH 3 0
BBX 1 8 1 0
BITMAP
80
00
80
80
80
80
80
80
ENDCHAR
STARTCHAR j
ENCODING 106
SWIDTH 154 0
DWIDTH 3 0
BBX 2 11 0 -3
BITMAP
40
00
40
40
40
40
40
40
40
40
80
ENDCHAR
STARTCHAR k
ENCODING 107
SWIDTH 308 0
DWIDTH 6 0
BBX 5 8 1 0
BITMAP
80
80
90
a0
e0
a0
90
98
ENDCHAR
STARTCHAR l
ENCODING 108
SWIDTH 154 0
DWIDTH 3 0
BBX 1 8 1 0
BITMAP
80
80
80
80
80
80
80
80
ENDCHAR
STARTCHAR m
ENCODING 109
SWIDTH 514 0
DWIDTH 10 0
BBX 8 6 1 0
BITMAP
ff
91
91
91
91
91
ENDCHAR
STARTCHAR n
ENCODING 110
SWIDTH 308 0
DWIDTH 6 0
BBX 5 6 1 0
BITMAP
f8
88
88
88
88
88
ENDCHAR
STARTCHAR o
ENCODING 111
SWIDTH 308 0
DWIDTH 6 0
BBX 6 6 0 0
BITMAP
38
44
84
84
4c
38
ENDCHAR
STARTCHAR p
ENCODING 112
SWIDTH 308 0
DWIDTH 6 0
BBX 5 9 1 -3
BITMAP
f0
88
88
88
88
f0
80
80
80
ENDCHAR
STARTCHAR q
ENCODING 113
SWIDTH 308 0
DWIDTH 6 0
BBX 6 9 0 -3
BITMAP
7c
cc
84
84
cc
74
04
04
04
ENDCHAR
STARTCHAR r
ENCODING 114
SWIDTH 205 0
DWIDTH 4 0
BBX 3 6 1 0
BITMAP
e0
80
80
80
80
80
ENDCHAR
STARTCHAR s
ENCODING 115
SWIDTH 308 0
DWIDTH 6 0
BBX 5 6 0 0
BITMAP
70
88
e0
18
88
70
ENDCHAR
STARTCHAR t
ENCODING 116
SWIDTH 154 0
DWIDTH 3 0
BBX 3 8 0 0
BITMAP
40
40
e0
40
40
40
40
60
ENDCHAR
STARTCHAR u
ENCODING 117
SWIDTH 308 0
DWIDTH 6 0
BBX 5 6 1 0
BITMAP
88
88
88
88
98
f0
ENDCHAR
STARTCHAR v
ENCODING 118
SWIDTH 308 0
DWIDTH 6 0
BBX 6 6 0 0
BITMAP
c4
4c
48
58
30
30
ENDCHAR
STARTCHAR w
ENCODING 119
SWIDTH 411 0
DWIDTH 8 0
BBX 8 6 0 0
BITMAP
99
99
5a
5a
66
24
ENDCHAR
STARTCHAR x
ENCODING 120
SWIDTH 308 0
DWIDTH 6 0
BBX 5 6 0 0
BITMAP
88
50
20
20
50
88
ENDCHAR
STARTCHAR y
ENCODING 121
SWIDTH 308 0
DWIDTH 6 0
BBX 5 9 0 -3
BITMAP
88
98
50
50
70
20
20
c0
c0
ENDCHAR
STARTCHAR z
ENCODING 122
SWIDTH 308 0
DWIDTH 6 0
BBX 5 6 0 0
BITMAP
f8
10
20
20
40
f8
ENDCHAR
STARTCHAR braceleft
ENCODING 123
SWIDTH 205 0
DWIDTH 4 0
BBX 2 10 1 -2
BITMAP
80
80
80
80
80
80
80
80
80
80
ENDCHAR
STARTCHAR bar
ENCODING 124
SWIDTH 154 0
DWIDTH 3 0
BBX 1 10 1 -2
BITMAP
80
80
80
80
80
80
80
80
80
80
ENDCHAR
STARTCHAR braceright
ENCODING 125
SWIDTH 205 0
DWIDTH 4 0
BBX 3 10 0 -2
BITMAP
40
40
40
40
60
60
40
40
40
40
ENDCHAR
STARTCHAR asciitilde
ENCODING 126
SWIDTH 360 0
DWIDTH 7 0
BBX 5 2 1 3
BITMAP
e8
98
ENDCHAR
STARTCHAR exclamdown
ENCODING 161
SWIDTH 360 0
DWIDTH 7 0
BBX 6 6 0 0
BITMAP
7c
24
44
44
44
44
ENDCHAR
STARTCHAR cent
ENCODING 162
SWIDTH 360 0
DWIDTH 7 0
BBX 6 6 0 0
BITMAP
74
74
14
14
14
3c
ENDCHAR
STARTCHAR sterling
ENCODING 163
SWIDTH 411 0
DWIDTH 8 0
BBX 7 6 0 0
BITMAP
7a
b2
d2
12
12
3e
ENDCHAR
STARTCHAR currency
ENCODING 164
SWIDTH 360 0
DWIDTH 7 0
BBX 6 7 0 0
BITMAP
38
c4
b4
f4
64
24
24
ENDCHAR
STARTCHAR yen
ENCODING 165
SWIDTH 360 0
DWIDTH 7 0
BBX 6 6 0 0
BITMAP
7c
74
74
64
24
24
ENDCHAR
STARTCHAR brokenbar
ENCODING 166
SWIDTH 462 0
DWIDTH 9 0
BBX 8 6 0 0
BITMAP
79
b1
71
1d
33
31
ENDCHAR
STARTCHAR section
ENCODING 167
SWIDTH 308 0
DWIDTH 6 0
BBX 5 6 0 0
BITMAP
38
18
48
48
28
38
ENDCHAR
STARTCHAR diaeresis
ENCODING 168
SWIDTH 360 0
DWIDTH 7 0
BBX 6 6 0 0
BITMAP
7c
34
34
1c
04
04
ENDCHAR
STARTCHAR copyright
ENCODING 169
SWIDTH 411 0
DWIDTH 8 0
BBX 8 6 0 0
BITMAP
3c
44
a4
6e
35
26
ENDCHAR
STARTCHAR ordfeminine
ENCODING 170
SWIDTH 360 0
DWIDTH 7 0
BBX 7 7 0 0
BITMAP
32
7c
74
14
14
14
3c
ENDCHAR
STARTCHAR guillemotleft
ENCODING 171
SWIDTH 411 0
DWIDTH 8 0
BBX 7 7 0 0
BITMAP
72
8c
f2
d2
12
12
3e
ENDCHAR
STARTCHAR notsign
ENCODING 172
SWIDTH 462 0
DWIDTH 9 0
BBX 8 6 0 0
BITMAP
fd
45
45
45
6f
6d
ENDCHAR
STARTCHAR hyphen
ENCODING 173
SWIDTH 462 0
DWIDTH 9 0
BBX 8 9 0 -3
BITMAP
fd
45
45
45
75
6f
00
0f
0e
ENDCHAR
STARTCHAR registered
ENCODING 174
SWIDTH 411 0
DWIDTH 8 0
BBX 7 9 0 -3
BITMAP
3e
12
22
22
e2
e2
0a
7a
76
ENDCHAR
STARTCHAR macron
ENCODING 175
SWIDTH 411 0
DWIDTH 8 0
BBX 7 9 0 -3
BITMAP
3e
12
22
22
e2
e2
12
76
7e
ENDCHAR
STARTCHAR degree
ENCODING 176
SWIDTH 308 0
DWIDTH 6 0
BBX 6 10 0 -4
BITMAP
7c
08
68
78
08
08
00
38
f8
68
ENDCHAR
STARTCHAR plusminus
ENCODING 177
SWIDTH 462 0
DWIDTH 9 0
BBX 8 6 0 0
BITMAP
7f
b5
d9
19
11
11
ENDCHAR
STARTCHAR twosuperior
ENCODING 178
SWIDTH 514 0
DWIDTH 10 0
BBX 9 6 0 0
BITMAP
7c80
7480
6c80
5480
6f80
2480
ENDCHAR
STARTCHAR threesuperior
ENCODING 179
SWIDTH 462 0
DWIDTH 9 0
BBX 10 6 0 0
BITMAP
fd00
4500
4500
4580
6740
65c0
ENDCHAR
STARTCHAR acute
ENCODING 180
SWIDTH 360 0
DWIDTH 7 0
BBX 6 7 0 0
BITMAP
38
44
74
6c
54
64
24
ENDCHAR
STARTCHAR mu
ENCODING 181
SWIDTH 360 0
DWIDTH 7 0
BBX 6 6 0 0
BITMAP
7c
74
6c
54
64
24
ENDCHAR
STARTCHAR paragraph
ENCODING 182
SWIDTH 360 0
DWIDTH 7 0
BBX 6 6 0 0
BITMAP
7c
24
44
44
64
64
ENDCHAR
STARTCHAR periodcentered
ENCODING 183
SWIDTH 360 0
DWIDTH 7 0
BBX 7 6 0 0
BITMAP
ee
72
32
22
22
22
ENDCHAR
STARTCHAR cedilla
ENCODING 184
SWIDTH 308 0
DWIDTH 6 0
BBX 5 6 0 0
BITMAP
60
18
28
28
28
78
ENDCHAR
STARTCHAR onesuperior
ENCODING 185
SWIDTH 411 0
DWIDTH 8 0
BBX 8 6 0 0
BITMAP
e4
64
24
2e
35
27
ENDCHAR
STARTCHAR masculine
ENCODING 186
SWIDTH 411 0
DWIDTH 8 0
BBX 7 6 0 0
BITMAP
e2
62
22
22
22
7e
ENDCHAR
STARTCHAR guillemotright
ENCODING 187
SWIDTH 411 0
DWIDTH 8 0
BBX 7 9 0 0
BITMAP
02
02
42
a2
62
22
22
22
7e
ENDCHAR
STARTCHAR onequarter
ENCODING 188
SWIDTH 360 0
DWIDTH 7 0
BBX 5 6 1 0
BITMAP
e8
c8
a8
f8
88
88
ENDCHAR
STARTCHAR onehalf
ENCODING 189
SWIDTH 360 0
DWIDTH 7 0
BBX 5 9 1 0
BITMAP
08
08
48
a8
c8
a8
f8
88
88
ENDCHAR
STARTCHAR threequarters
ENCODING 190
SWIDTH 411 0
DWIDTH 8 0
BBX 8 6 0 0
BITMAP
e5
6d
2d
33
23
21
ENDCHAR
STARTCHAR questiondown
ENCODING 191
SWIDTH 411 0
DWIDTH 8 0
BBX 8 9 0 0
BITMAP
01
01
49
a9
6d
35
33
23
21
ENDCHAR
STARTCHAR Agrave
ENCODING 192
SWIDTH 411 0
DWIDTH 8 0
BBX 7 6 0 0
BITMAP
3e
12
22
22
e2
e2
ENDCHAR
STARTCHAR Aacute
ENCODING 193
SWIDTH 411 0
DWIDTH 8 0
BBX 6 6 1 0
BITMAP
c4
c4
44
e4
dc
c4
ENDCHAR
STARTCHAR Acircumflex
ENCODING 194
SWIDTH 360 0
DWIDTH 7 0
BBX 5 6 1 0
BITMAP
e8
c8
c8
88
88
f8
ENDCHAR
STARTCHAR Atilde
ENCODING 195
SWIDTH 308 0
DWIDTH 6 0
BBX 6 6 0 0
BITMAP
7c
18
08
08
18
18
ENDCHAR
STARTCHAR Adiaeresis
ENCODING 196
SWIDTH 360 0
DWIDTH 7 0
BBX 6 9 0 -3
BITMAP
7c
24
44
44
64
64
04
04
04
ENDCHAR
STARTCHAR Aring
ENCODING 197
SWIDTH 360 0
DWIDTH 7 0
BBX 5 6 1 0
BITMAP
f8
48
b8
98
c8
c8
ENDCHAR
STARTCHAR AE
ENCODING 198
SWIDTH 411 0
DWIDTH 8 0
BBX 7 9 0 -3
BITMAP
3e
12
22
22
e2
e2
02
02
02
ENDCHAR
STARTCHAR Ccedilla
ENCODING 199
SWIDTH 308 0
DWIDTH 6 0
BBX 6 6 0 0
BITMAP
f8
04
04
04
1c
1c
ENDCHAR
STARTCHAR Egrave
ENCODING 200
SWIDTH 360 0
DWIDTH 7 0
BBX 7 7 0 0
BITMAP
3a
44
bc
7c
64
24
24
ENDCHAR
STARTCHAR Eacute
ENCODING 201
SWIDTH 411 0
DWIDTH 8 0
BBX 8 6 0 0
BITMAP
e2
6b
37
2e
22
7e
ENDCHAR
STARTCHAR Ecircumflex
ENCODING 202
SWIDTH 360 0
DWIDTH 7 0
BBX 6 7 1 0
BITMAP
08
fc
68
98
98
c8
c8
ENDCHAR
STARTCHAR Ediaeresis
ENCODING 203
SWIDTH 411 0
DWIDTH 8 0
BBX 7 6 0 0
BITMAP
ee
64
3a
32
22
22
ENDCHAR
STARTCHAR Igrave
ENCODING 204
SWIDTH 411 0
DWIDTH 8 0
BBX 9 8 0 0
BITMAP
0200
4780
aa00
6e00
3600
3600
2200
2200
ENDCHAR
STARTCHAR Iacute
ENCODING 205
SWIDTH 360 0
DWIDTH 7 0
BBX 5 6 1 0
BITMAP
f8
c8
a8
c8
88
f8
ENDCHAR
STARTCHAR Icircumflex
ENCODING 206
SWIDTH 360 0
DWIDTH 7 0
BBX 6 7 1 0
BITMAP
04
fc
f8
c8
e8
88
f8
ENDCHAR
STARTCHAR Idiaeresis
ENCODING 207
SWIDTH 308 0
DWIDTH 6 0
BBX 5 6 1 0
BITMAP
c8
d8
d8
e8
08
30
ENDCHAR
STARTCHAR ETH
ENCODING 208
SWIDTH 257 0
DWIDTH 5 0
BBX 4 6 1 0
BITMAP
d0
60
00
00
d0
e0
ENDCHAR
STARTCHAR Ntilde
ENCODING 209
SWIDTH 0 0
DWIDTH 0 0
BBX 6 3 -4 8
BITMAP
40
a4
f8
ENDCHAR
STARTCHAR Ograve
ENCODING 210
SWIDTH 308 0
DWIDTH 6 0
BBX 5 6 0 0
BITMAP
78
08
08
08
08
08
ENDCHAR
STARTCHAR Oacute
ENCODING 211
SWIDTH 308 0
DWIDTH 6 0
BBX 8 10 -3 0
BITMAP
60
60
00
00
0f
01
01
01
01
01
ENDCHAR
STARTCHAR Ocircumflex
ENCODING 212
SWIDTH 0 0
DWIDTH 0 0
BBX 5 2 -6 8
BITMAP
78
f8
ENDCHAR
STARTCHAR Otilde
ENCODING 213
SWIDTH 51 0
DWIDTH 1 0
BBX 6 3 -6 8
BITMAP
08
78
f8
ENDCHAR
STARTCHAR Odiaeresis
ENCODING 214
SWIDTH 0 0
DWIDTH 0 0
BBX 6 3 -6 8
BITMAP
3c
48
f8
ENDCHAR
STARTCHAR multiply
ENCODING 215
SWIDTH 51 0
DWIDTH 1 0
BBX 6 3 -6 8
BITMAP
18
68
f8
ENDCHAR
STARTCHAR Ooblique
ENCODING 216
SWIDTH 0 0
DWIDTH 0 0
BBX 2 4 -3 -5
BITMAP
c0
c0
40
40
ENDCHAR
STARTCHAR Ugrave
ENCODING 217
SWIDTH 0 0
DWIDTH 0 0
BBX 4 4 -5 -5
BITMAP
d0
d0
50
30
ENDCHAR
STARTCHAR Uacute
ENCODING 218
SWIDTH 0 0
DWIDTH 0 0
BBX 1 1 -2 -2
BITMAP
80
ENDCHAR
STARTCHAR Ucircumflex
ENCODING 219
SWIDTH 0 0
DWIDTH 0 0
BBX 1 1 -2 -5
BITMAP
80
ENDCHAR
STARTCHAR Udiaeresis
ENCODING 220
SWIDTH 0 0
DWIDTH 0 0
BBX 1 1 0 0
BITMAP
00
ENDCHAR
STARTCHAR Yacute
ENCODING 221
SWIDTH 0 0
DWIDTH 0 0
BBX 1 1 0 0
BITMAP
00
ENDCHAR
STARTCHAR THORN
ENCODING 222
SWIDTH 0 0
DWIDTH 0 0
BBX 1 1 0 0
BITMAP
00
ENDCHAR
STARTCHAR ssharp
ENCODING 223
SWIDTH 0 0
DWIDTH 0 0
BBX 1 1 0 0
BITMAP
00
ENDCHAR
STARTCHAR agrave
ENCODING 224
SWIDTH 205 0
DWIDTH 4 0
BBX 2 6 1 0
BITMAP
80
80
80
80
c0
c0
ENDCHAR
STARTCHAR aacute
ENCODING 225
SWIDTH 360 0
DWIDTH 7 0
BBX 6 6 1 0
BITMAP
90
90
90
90
d8
d8
ENDCHAR
STARTCHAR acircumflex
ENCODING 226
SWIDTH 205 0
DWIDTH 4 0
BBX 5 12 -1 0
BITMAP
78
60
10
10
10
10
10
10
10
10
18
18
ENDCHAR
STARTCHAR atilde
ENCODING 227
SWIDTH 205 0
DWIDTH 4 0
BBX 5 12 -1 0
BITMAP
70
d0
50
10
10
10
10
10
10
10
18
18
ENDCHAR
STARTCHAR adiaeresis
ENCODING 228
SWIDTH 257 0
DWIDTH 5 0
BBX 6 12 -1 0
BITMAP
50
70
70
30
10
10
10
10
10
10
1c
1c
ENDCHAR
STARTCHAR aring
ENCODING 229
SWIDTH 308 0
DWIDTH 6 0
BBX 5 9 0 -3
BITMAP
78
08
08
08
08
08
08
08
08
ENDCHAR
STARTCHAR ae
ENCODING 230
SWIDTH 411 0
DWIDTH 8 0
BBX 5 9 2 -3
BITMAP
f8
c8
e8
08
08
08
08
18
10
ENDCHAR
STARTCHAR ccedilla
ENCODING 231
SWIDTH 0 0
DWIDTH 0 0
BBX 5 3 -6 8
BITMAP
78
98
f8
ENDCHAR
STARTCHAR egrave
ENCODING 232
SWIDTH 0 0
DWIDTH 0 0
BBX 1 2 -2 12
BITMAP
80
80
ENDCHAR
STARTCHAR eacute
ENCODING 233
SWIDTH 0 0
DWIDTH 0 0
BBX 4 3 -4 11
BITMAP
d0
70
40
ENDCHAR
STARTCHAR ecircumflex
ENCODING 234
SWIDTH 0 0
DWIDTH 0 0
BBX 5 2 -5 12
BITMAP
f8
d8
ENDCHAR
STARTCHAR ediaeresis
ENCODING 235
SWIDTH 0 0
DWIDTH 0 0
BBX 3 2 -3 12
BITMAP
40
e0
ENDCHAR
STARTCHAR igrave
ENCODING 236
SWIDTH 0 0
DWIDTH 0 0
BBX 4 3 -3 11
BITMAP
70
c0
e0
ENDCHAR
STARTCHAR iacute
ENCODING 237
SWIDTH 0 0
DWIDTH 0 0
BBX 2 3 -3 7
BITMAP
c0
c0
40
ENDCHAR
STARTCHAR icircumflex
ENCODING 238
SWIDTH 0 0
DWIDTH 0 0
BBX 2 3 -3 9
BITMAP
40
c0
40
ENDCHAR
STARTCHAR idiaeresis
ENCODING 239
SWIDTH 360 0
DWIDTH 7 0
BBX 7 6 0 0
BITMAP
7c
be
ba
ba
fe
38
ENDCHAR
STARTCHAR eth
ENCODING 240
SWIDTH 360 0
DWIDTH 7 0
BBX 5 5 1 0
BITMAP
70
88
88
88
70
ENDCHAR
STARTCHAR ntilde
ENCODING 241
SWIDTH 360 0
DWIDTH 7 0
BBX 5 5 1 0
BITMAP
70
88
f8
b8
68
ENDCHAR
STARTCHAR ograve
ENCODING 242
SWIDTH 411 0
DWIDTH 8 0
BBX 7 7 1 0
BITMAP
80
80
bc
aa
d2
a2
fe
ENDCHAR
STARTCHAR oacute
ENCODING 243
SWIDTH 411 0
DWIDTH 8 0
BBX 6 5 1 0
BITMAP
68
94
94
f4
d4
ENDCHAR
STARTCHAR ocircumflex
ENCODING 244
SWIDTH 411 0
DWIDTH 8 0
BBX 7 8 1 0
BITMAP
02
02
02
7c
90
a8
b0
7c
ENDCHAR
STARTCHAR otilde
ENCODING 245
SWIDTH 411 0
DWIDTH 8 0
BBX 7 8 1 0
BITMAP
02
12
2a
7c
90
a8
b0
7c
ENDCHAR
STARTCHAR odiaeresis
ENCODING 246
SWIDTH 308 0
DWIDTH 6 0
BBX 5 7 0 0
BITMAP
80
40
70
08
48
68
70
ENDCHAR
STARTCHAR division
ENCODING 247
SWIDTH 411 0
DWIDTH 8 0
BBX 7 7 1 0
BITMAP
02
02
fa
aa
ca
ac
c8
ENDCHAR
STARTCHAR oslash
ENCODING 248
SWIDTH 411 0
DWIDTH 8 0
BBX 7 7 1 0
BITMAP
02
02
7e
84
cc
ee
5c
ENDCHAR
STARTCHAR ugrave
ENCODING 249
SWIDTH 360 0
DWIDTH 7 0
BBX 6 7 1 0
BITMAP
04
04
7c
90
90
f8
e4
ENDCHAR
STARTCHAR uacute
ENCODING 250
SWIDTH 977 0
DWIDTH 19 0
BBX 19 1 0 3
BITMAP
ffffe0
ENDCHAR
STARTCHAR ucircumflex
ENCODING 251
SWIDTH 514 0
DWIDTH 10 0
BBX 9 1 0 3
BITMAP
ff80
ENDCHAR
STARTCHAR udiaeresis
ENCODING 252
SWIDTH 0 0
DWIDTH 0 0
BBX 2 4 -3 -8
BITMAP
c0
c0
40
40
ENDCHAR
STARTCHAR yacute
ENCODING 253
SWIDTH 0 0
DWIDTH 0 0
BBX 4 4 -5 -8
BITMAP
d0
d0
50
30
ENDCHAR
STARTCHAR thorn
ENCODING 254
SWIDTH 462 0
DWIDTH 9 0
BBX 9 8 0 0
BITMAP
1c00
6300
5c80
9c80
9480
5480
4100
3e00
ENDCHAR
STARTCHAR ydiaeresis
ENCODING 255
SWIDTH 0 0
DWIDTH 0 0
BBX 1 1 0 0
BITMAP
00
ENDCHAR
ENDFONT
